<mxfile host="Electron" modified="2024-01-17T19:55:13.626Z" agent="Mozilla/5.0 (Macintosh; Intel Mac OS X 10_15_7) AppleWebKit/537.36 (KHTML, like Gecko) draw.io/22.1.18 Chrome/120.0.6099.199 Electron/28.1.2 Safari/537.36" etag="mvMe9yxvfRbwzahMp-n7" version="22.1.18" type="device">
  <diagram id="_crdVszrZETeNAWnbbU0" name="Page-1">
    <mxGraphModel dx="1114" dy="894" grid="1" gridSize="10" guides="1" tooltips="1" connect="1" arrows="1" fold="1" page="1" pageScale="1" pageWidth="1600" pageHeight="900" math="0" shadow="0">
      <root>
        <mxCell id="0" />
        <mxCell id="1" parent="0" />
        <mxCell id="ehnwyHEJiLwesBY_ej1A-1" value="" style="ellipse;whiteSpace=wrap;html=1;aspect=fixed;strokeWidth=2;fillColor=#d5e8d4;strokeColor=#000000;" parent="1" vertex="1">
          <mxGeometry x="480" y="320" width="80" height="80" as="geometry" />
        </mxCell>
        <mxCell id="ehnwyHEJiLwesBY_ej1A-3" value="" style="curved=1;endArrow=none;html=1;endFill=0;strokeWidth=2;exitX=0;exitY=1;exitDx=0;exitDy=0;" parent="1" source="ehnwyHEJiLwesBY_ej1A-1" edge="1">
          <mxGeometry width="50" height="50" relative="1" as="geometry">
            <mxPoint x="490" y="410" as="sourcePoint" />
            <mxPoint x="350" y="500" as="targetPoint" />
            <Array as="points">
              <mxPoint x="460" y="420" />
              <mxPoint x="370" y="430" />
            </Array>
          </mxGeometry>
        </mxCell>
        <mxCell id="ehnwyHEJiLwesBY_ej1A-4" value="" style="endArrow=none;html=1;strokeWidth=2;" parent="1" target="ehnwyHEJiLwesBY_ej1A-12" edge="1">
          <mxGeometry width="50" height="50" relative="1" as="geometry">
            <mxPoint x="550" y="210" as="sourcePoint" />
            <mxPoint x="590" y="180" as="targetPoint" />
          </mxGeometry>
        </mxCell>
        <mxCell id="ehnwyHEJiLwesBY_ej1A-12" value="&lt;font face=&quot;Garamond&quot;&gt;&lt;i&gt;&lt;span style=&quot;font-size: 19px&quot;&gt;x&lt;/span&gt;&lt;span style=&quot;font-size: 15.8333px&quot;&gt;&lt;sub&gt;1&lt;/sub&gt;&lt;/span&gt;&lt;/i&gt;&lt;/font&gt;" style="ellipse;whiteSpace=wrap;html=1;aspect=fixed;strokeColor=#000000;strokeWidth=2;fillColor=#dae8fc;" parent="1" vertex="1">
          <mxGeometry x="600" y="120" width="40" height="40" as="geometry" />
        </mxCell>
        <mxCell id="ehnwyHEJiLwesBY_ej1A-13" value="" style="endArrow=none;html=1;strokeWidth=2;" parent="1" target="ehnwyHEJiLwesBY_ej1A-14" edge="1">
          <mxGeometry width="50" height="50" relative="1" as="geometry">
            <mxPoint x="590" y="250" as="sourcePoint" />
            <mxPoint x="630" y="220" as="targetPoint" />
          </mxGeometry>
        </mxCell>
        <mxCell id="ehnwyHEJiLwesBY_ej1A-14" value="&lt;i style=&quot;font-family: &amp;#34;garamond&amp;#34; ; font-size: 19px&quot;&gt;x&lt;/i&gt;&lt;i style=&quot;font-family: &amp;#34;garamond&amp;#34; ; font-size: 15.8333px&quot;&gt;&lt;sub&gt;2&lt;/sub&gt;&lt;/i&gt;" style="ellipse;whiteSpace=wrap;html=1;aspect=fixed;strokeColor=#000000;strokeWidth=2;fillColor=#dae8fc;" parent="1" vertex="1">
          <mxGeometry x="640" y="160" width="40" height="40" as="geometry" />
        </mxCell>
        <mxCell id="ehnwyHEJiLwesBY_ej1A-15" value="" style="endArrow=none;html=1;strokeWidth=2;" parent="1" target="ehnwyHEJiLwesBY_ej1A-16" edge="1">
          <mxGeometry width="50" height="50" relative="1" as="geometry">
            <mxPoint x="630" y="290" as="sourcePoint" />
            <mxPoint x="670" y="260" as="targetPoint" />
          </mxGeometry>
        </mxCell>
        <mxCell id="ehnwyHEJiLwesBY_ej1A-16" value="&lt;i style=&quot;font-family: &amp;#34;garamond&amp;#34; ; font-size: 19px&quot;&gt;x&lt;/i&gt;&lt;i style=&quot;font-family: &amp;#34;garamond&amp;#34; ; font-size: 15.8333px&quot;&gt;&lt;sub&gt;3&lt;/sub&gt;&lt;/i&gt;" style="ellipse;whiteSpace=wrap;html=1;aspect=fixed;strokeColor=#000000;strokeWidth=2;fillColor=#dae8fc;" parent="1" vertex="1">
          <mxGeometry x="680" y="200" width="40" height="40" as="geometry" />
        </mxCell>
        <mxCell id="ehnwyHEJiLwesBY_ej1A-17" value="" style="endArrow=none;html=1;strokeWidth=2;" parent="1" target="ehnwyHEJiLwesBY_ej1A-18" edge="1">
          <mxGeometry width="50" height="50" relative="1" as="geometry">
            <mxPoint x="670" y="330" as="sourcePoint" />
            <mxPoint x="710" y="300" as="targetPoint" />
          </mxGeometry>
        </mxCell>
        <mxCell id="ehnwyHEJiLwesBY_ej1A-18" value="&lt;i style=&quot;font-family: &amp;#34;garamond&amp;#34; ; font-size: 19px&quot;&gt;x&lt;/i&gt;&lt;i style=&quot;font-family: &amp;#34;garamond&amp;#34; ; font-size: 15.8333px&quot;&gt;&lt;sub&gt;4&lt;/sub&gt;&lt;/i&gt;" style="ellipse;whiteSpace=wrap;html=1;aspect=fixed;strokeColor=#000000;strokeWidth=2;fillColor=#dae8fc;" parent="1" vertex="1">
          <mxGeometry x="720" y="240" width="40" height="40" as="geometry" />
        </mxCell>
        <mxCell id="ehnwyHEJiLwesBY_ej1A-19" value="&lt;font face=&quot;Garamond&quot;&gt;&lt;i style=&quot;font-size: 19px&quot;&gt;w&lt;/i&gt;&lt;i style=&quot;font-size: 15.8333px&quot;&gt;&lt;sub&gt;1&lt;/sub&gt;&lt;/i&gt;&lt;/font&gt;" style="rounded=1;whiteSpace=wrap;html=1;strokeColor=#000000;strokeWidth=2;rotation=45;fillColor=#fff2cc;" parent="1" vertex="1">
          <mxGeometry x="522" y="203" width="40" height="30" as="geometry" />
        </mxCell>
        <mxCell id="ehnwyHEJiLwesBY_ej1A-25" value="&lt;font face=&quot;Garamond&quot;&gt;&lt;i style=&quot;font-size: 19px&quot;&gt;w&lt;/i&gt;&lt;i style=&quot;font-size: 15.8333px&quot;&gt;&lt;sub&gt;2&lt;/sub&gt;&lt;/i&gt;&lt;/font&gt;" style="rounded=1;whiteSpace=wrap;html=1;strokeColor=#000000;strokeWidth=2;rotation=45;fillColor=#fff2cc;" parent="1" vertex="1">
          <mxGeometry x="562" y="243" width="40" height="30" as="geometry" />
        </mxCell>
        <mxCell id="ehnwyHEJiLwesBY_ej1A-26" value="&lt;font face=&quot;Garamond&quot;&gt;&lt;i style=&quot;font-size: 19px&quot;&gt;w&lt;/i&gt;&lt;i style=&quot;font-size: 15.8333px&quot;&gt;&lt;sub&gt;3&lt;/sub&gt;&lt;/i&gt;&lt;/font&gt;" style="rounded=1;whiteSpace=wrap;html=1;strokeColor=#000000;strokeWidth=2;rotation=45;fillColor=#fff2cc;" parent="1" vertex="1">
          <mxGeometry x="601" y="281" width="40" height="30" as="geometry" />
        </mxCell>
        <mxCell id="ehnwyHEJiLwesBY_ej1A-27" value="&lt;font face=&quot;Garamond&quot;&gt;&lt;i style=&quot;font-size: 19px&quot;&gt;w&lt;/i&gt;&lt;i style=&quot;font-size: 15.8333px&quot;&gt;&lt;sub&gt;4&lt;/sub&gt;&lt;/i&gt;&lt;/font&gt;" style="rounded=1;whiteSpace=wrap;html=1;strokeColor=#000000;strokeWidth=2;rotation=45;fillColor=#fff2cc;" parent="1" vertex="1">
          <mxGeometry x="642" y="322" width="40" height="30" as="geometry" />
        </mxCell>
        <mxCell id="ehnwyHEJiLwesBY_ej1A-29" value="" style="endArrow=none;html=1;strokeWidth=2;exitX=0.5;exitY=0;exitDx=0;exitDy=0;entryX=0.75;entryY=1;entryDx=0;entryDy=0;" parent="1" source="ehnwyHEJiLwesBY_ej1A-1" target="ehnwyHEJiLwesBY_ej1A-19" edge="1">
          <mxGeometry width="50" height="50" relative="1" as="geometry">
            <mxPoint x="560" y="220" as="sourcePoint" />
            <mxPoint x="470" y="250" as="targetPoint" />
          </mxGeometry>
        </mxCell>
        <mxCell id="ehnwyHEJiLwesBY_ej1A-30" value="" style="endArrow=none;html=1;strokeWidth=2;entryX=0.5;entryY=1;entryDx=0;entryDy=0;" parent="1" target="ehnwyHEJiLwesBY_ej1A-25" edge="1">
          <mxGeometry width="50" height="50" relative="1" as="geometry">
            <mxPoint x="535" y="322" as="sourcePoint" />
            <mxPoint x="548.4644660940673" y="245.67766952966372" as="targetPoint" />
          </mxGeometry>
        </mxCell>
        <mxCell id="ehnwyHEJiLwesBY_ej1A-31" value="" style="endArrow=none;html=1;strokeWidth=2;entryX=0.5;entryY=1;entryDx=0;entryDy=0;exitX=1;exitY=0;exitDx=0;exitDy=0;" parent="1" source="ehnwyHEJiLwesBY_ej1A-1" target="ehnwyHEJiLwesBY_ej1A-26" edge="1">
          <mxGeometry width="50" height="50" relative="1" as="geometry">
            <mxPoint x="545" y="332" as="sourcePoint" />
            <mxPoint x="581.3933982822018" y="278.6066017177982" as="targetPoint" />
          </mxGeometry>
        </mxCell>
        <mxCell id="ehnwyHEJiLwesBY_ej1A-32" value="" style="endArrow=none;html=1;strokeWidth=2;exitX=0.938;exitY=0.288;exitDx=0;exitDy=0;entryX=0.25;entryY=1;entryDx=0;entryDy=0;exitPerimeter=0;" parent="1" source="ehnwyHEJiLwesBY_ej1A-1" target="ehnwyHEJiLwesBY_ej1A-27" edge="1">
          <mxGeometry width="50" height="50" relative="1" as="geometry">
            <mxPoint x="530" y="330" as="sourcePoint" />
            <mxPoint x="548.4644660940673" y="245.67766952966372" as="targetPoint" />
          </mxGeometry>
        </mxCell>
        <mxCell id="ehnwyHEJiLwesBY_ej1A-34" value="&lt;font face=&quot;Garamond&quot; size=&quot;1&quot;&gt;&lt;i style=&quot;font-size: 23px&quot;&gt;y&lt;/i&gt;&lt;/font&gt;" style="text;html=1;strokeColor=none;fillColor=none;align=center;verticalAlign=middle;whiteSpace=wrap;rounded=0;" parent="1" vertex="1">
          <mxGeometry x="380" y="430" width="40" height="20" as="geometry" />
        </mxCell>
        <mxCell id="ehnwyHEJiLwesBY_ej1A-35" value="&lt;font style=&quot;font-size: 25px&quot;&gt;Input Environment&lt;/font&gt;" style="text;html=1;strokeColor=none;fillColor=none;align=center;verticalAlign=middle;whiteSpace=wrap;rounded=0;rotation=45;" parent="1" vertex="1">
          <mxGeometry x="602" y="130" width="230" height="70" as="geometry" />
        </mxCell>
        <mxCell id="ehnwyHEJiLwesBY_ej1A-36" value="&lt;font style=&quot;font-size: 25px&quot;&gt;Synaptic&lt;br&gt;Weights&lt;br&gt;&lt;/font&gt;" style="text;html=1;strokeColor=none;fillColor=none;align=center;verticalAlign=middle;whiteSpace=wrap;rounded=0;rotation=0;" parent="1" vertex="1">
          <mxGeometry x="400" y="173" width="130" height="70" as="geometry" />
        </mxCell>
        <mxCell id="ehnwyHEJiLwesBY_ej1A-37" value="&lt;font style=&quot;font-size: 25px&quot;&gt;Single Cortical Cell&lt;br&gt;&lt;/font&gt;" style="text;html=1;strokeColor=none;fillColor=none;align=center;verticalAlign=middle;whiteSpace=wrap;rounded=0;rotation=0;" parent="1" vertex="1">
          <mxGeometry x="442.5" y="400" width="155" height="70" as="geometry" />
        </mxCell>
      </root>
    </mxGraphModel>
  </diagram>
</mxfile>
